<svg xmlns="http://www.w3.org/2000/svg" viewBox="0 0 120 120">
  <!-- 頭ベース -->
  <circle cx="60" cy="66" r="46" fill="#3A3A3A"/>
  <!-- 耳 -->
  <circle cx="34" cy="32" r="13" fill="#2A2A2A"/>
  <circle cx="86" cy="32" r="13" fill="#2A2A2A"/>
  <circle cx="34" cy="32" r="7" fill="#5A4A4A"/>
  <circle cx="86" cy="32" r="7" fill="#5A4A4A"/>
  <!-- 顔 -->
  <circle cx="60" cy="68" r="36" fill="#555555"/>
  <!-- 口周り -->
  <ellipse cx="60" cy="79" rx="14" ry="10" fill="#6A6060"/>
  <!-- 眉 -->
  <path d="M 44 57 Q 49 54 54 57" stroke="#AAAAAA" stroke-width="2" fill="none" stroke-linecap="round"/>
  <path d="M 66 57 Q 71 54 76 57" stroke="#AAAAAA" stroke-width="2" fill="none" stroke-linecap="round"/>
  <!-- 目（ゴールドカラー） -->
  <ellipse cx="50" cy="64" rx="5.5" ry="5.5" fill="#D4A820"/>
  <ellipse cx="70" cy="64" rx="5.5" ry="5.5" fill="#D4A820"/>
  <ellipse cx="50" cy="64" rx="3" ry="4.5" fill="#1A1A1A"/>
  <ellipse cx="70" cy="64" rx="3" ry="4.5" fill="#1A1A1A"/>
  <circle cx="51.5" cy="62" r="1.5" fill="white" opacity="0.8"/>
  <circle cx="71.5" cy="62" r="1.5" fill="white" opacity="0.8"/>
  <!-- ほっぺ -->
  <circle cx="43" cy="75" r="7" fill="#FFB3C0" opacity="0.3"/>
  <circle cx="77" cy="75" r="7" fill="#FFB3C0" opacity="0.3"/>
  <!-- 鼻 -->
  <ellipse cx="60" cy="76" rx="4" ry="3" fill="#888888"/>
  <!-- 口 -->
  <path d="M 55 80 Q 60 85 65 80" stroke="#888888" stroke-width="1.8" fill="none" stroke-linecap="round"/>
  <!-- ひげ -->
  <line x1="28" y1="76" x2="50" y2="77" stroke="#AAAAAA" stroke-width="1" opacity="0.7"/>
  <line x1="28" y1="80" x2="50" y2="80" stroke="#AAAAAA" stroke-width="1" opacity="0.7"/>
  <line x1="70" y1="77" x2="92" y2="76" stroke="#AAAAAA" stroke-width="1" opacity="0.7"/>
  <line x1="70" y1="80" x2="92" y2="80" stroke="#AAAAAA" stroke-width="1" opacity="0.7"/>
</svg>
