<svg xmlns="http://www.w3.org/2000/svg" viewBox="0 0 120 120">
  <!-- 頭ベース -->
  <circle cx="60" cy="66" r="46" fill="#E8A838"/>
  <!-- 耳 -->
  <circle cx="34" cy="32" r="13" fill="#D09020"/>
  <circle cx="86" cy="32" r="13" fill="#D09020"/>
  <circle cx="34" cy="32" r="7" fill="#E8C080"/>
  <circle cx="86" cy="32" r="7" fill="#E8C080"/>
  <!-- 顔 -->
  <circle cx="60" cy="68" r="36" fill="#FFF0C0"/>
  <!-- 涙線（チーターの特徴） -->
  <path d="M 48 65 Q 44 75 44 82" stroke="#8B6010" stroke-width="2" fill="none" stroke-linecap="round"/>
  <path d="M 72 65 Q 76 75 76 82" stroke="#8B6010" stroke-width="2" fill="none" stroke-linecap="round"/>
  <!-- 頬の斑点 -->
  <circle cx="42" cy="72" r="2.5" fill="#C07018" opacity="0.7"/>
  <circle cx="47" cy="76" r="2" fill="#C07018" opacity="0.7"/>
  <circle cx="78" cy="72" r="2.5" fill="#C07018" opacity="0.7"/>
  <circle cx="73" cy="76" r="2" fill="#C07018" opacity="0.7"/>
  <!-- 眉 -->
  <path d="M 44 57 Q 49 54 54 57" stroke="#C07818" stroke-width="1.8" fill="none" stroke-linecap="round"/>
  <path d="M 66 57 Q 71 54 76 57" stroke="#C07818" stroke-width="1.8" fill="none" stroke-linecap="round"/>
  <!-- 目 -->
  <ellipse cx="50" cy="64" rx="5.5" ry="5.5" fill="#2D1B00"/>
  <ellipse cx="70" cy="64" rx="5.5" ry="5.5" fill="#2D1B00"/>
  <circle cx="51.8" cy="62.2" r="1.8" fill="white"/>
  <circle cx="71.8" cy="62.2" r="1.8" fill="white"/>
  <!-- ほっぺ -->
  <circle cx="43" cy="75" r="7" fill="#FFB3C0" opacity="0.5"/>
  <circle cx="77" cy="75" r="7" fill="#FFB3C0" opacity="0.5"/>
  <!-- 鼻 -->
  <ellipse cx="60" cy="76" rx="4" ry="3" fill="#B07020"/>
  <!-- 口 -->
  <path d="M 55 80 Q 60 85 65 80" stroke="#B07020" stroke-width="1.8" fill="none" stroke-linecap="round"/>
</svg>
