<svg xmlns="http://www.w3.org/2000/svg" viewBox="0 0 120 120">
  <!-- たてがみ外側 -->
  <circle cx="60" cy="64" r="52" fill="#E8A818" opacity="0.35"/>
  <!-- たてがみ -->
  <circle cx="60" cy="64" r="46" fill="#E8A818"/>
  <!-- 耳 -->
  <circle cx="33" cy="32" r="12" fill="#D49810"/>
  <circle cx="87" cy="32" r="12" fill="#D49810"/>
  <circle cx="33" cy="32" r="7" fill="#C07820"/>
  <circle cx="87" cy="32" r="7" fill="#C07820"/>
  <!-- 顔 -->
  <circle cx="60" cy="68" r="36" fill="#FFF5CC"/>
  <!-- 眉 -->
  <path d="M 44 57 Q 49 54 54 57" stroke="#C07820" stroke-width="1.8" fill="none" stroke-linecap="round"/>
  <path d="M 66 57 Q 71 54 76 57" stroke="#C07820" stroke-width="1.8" fill="none" stroke-linecap="round"/>
  <!-- 目 -->
  <ellipse cx="50" cy="63" rx="5.5" ry="5.5" fill="#2D1B00"/>
  <ellipse cx="70" cy="63" rx="5.5" ry="5.5" fill="#2D1B00"/>
  <circle cx="51.8" cy="61.2" r="1.8" fill="white"/>
  <circle cx="71.8" cy="61.2" r="1.8" fill="white"/>
  <!-- ほっぺ -->
  <circle cx="43" cy="74" r="8" fill="#FFB3C0" opacity="0.5"/>
  <circle cx="77" cy="74" r="8" fill="#FFB3C0" opacity="0.5"/>
  <!-- 鼻 -->
  <ellipse cx="60" cy="75" rx="4" ry="3" fill="#B06820"/>
  <!-- 口 -->
  <path d="M 55 79 Q 60 84 65 79" stroke="#B06820" stroke-width="1.8" fill="none" stroke-linecap="round"/>
</svg>
