<svg xmlns="http://www.w3.org/2000/svg" viewBox="0 0 120 120">
  <!-- 翼（左） -->
  <ellipse cx="22" cy="64" rx="18" ry="10" fill="#D4C0F0" transform="rotate(-20 22 64)"/>
  <ellipse cx="16" cy="72" rx="14" ry="7" fill="#C4AAEC" transform="rotate(-30 16 72)"/>
  <!-- 翼（右） -->
  <ellipse cx="98" cy="64" rx="18" ry="10" fill="#D4C0F0" transform="rotate(20 98 64)"/>
  <ellipse cx="104" cy="72" rx="14" ry="7" fill="#C4AAEC" transform="rotate(30 104 72)"/>
  <!-- 頭ベース -->
  <circle cx="60" cy="66" r="46" fill="#C8B4E8"/>
  <!-- 耳 -->
  <ellipse cx="36" cy="32" rx="9" ry="12" fill="#B8A0D8"/>
  <ellipse cx="84" cy="32" rx="9" ry="12" fill="#B8A0D8"/>
  <ellipse cx="36" cy="32" rx="5" ry="8" fill="#E0D0F8"/>
  <ellipse cx="84" cy="32" rx="5" ry="8" fill="#E0D0F8"/>
  <!-- 角 -->
  <polygon points="60,4 55,30 65,30" fill="#D4A830"/>
  <polygon points="60,4 56,28 64,28" fill="#F0C848"/>
  <!-- 顔 -->
  <circle cx="60" cy="68" r="36" fill="#F0E8FF"/>
  <!-- 目 -->
  <ellipse cx="50" cy="64" rx="5.5" ry="5.5" fill="#7B58B8"/>
  <ellipse cx="70" cy="64" rx="5.5" ry="5.5" fill="#7B58B8"/>
  <ellipse cx="50" cy="64" rx="3.5" ry="5" fill="#2A1850"/>
  <ellipse cx="70" cy="64" rx="3.5" ry="5" fill="#2A1850"/>
  <circle cx="51.5" cy="62" r="1.8" fill="white"/>
  <circle cx="71.5" cy="62" r="1.8" fill="white"/>
  <!-- まつげ -->
  <path d="M 46 59 L 44 56" stroke="#7B58B8" stroke-width="1.2" stroke-linecap="round"/>
  <path d="M 49 58 L 48 55" stroke="#7B58B8" stroke-width="1.2" stroke-linecap="round"/>
  <path d="M 74 59 L 76 56" stroke="#7B58B8" stroke-width="1.2" stroke-linecap="round"/>
  <path d="M 71 58 L 72 55" stroke="#7B58B8" stroke-width="1.2" stroke-linecap="round"/>
  <!-- ほっぺ -->
  <circle cx="43" cy="75" r="7.5" fill="#FFB3C0" opacity="0.55"/>
  <circle cx="77" cy="75" r="7.5" fill="#FFB3C0" opacity="0.55"/>
  <!-- 鼻 -->
  <ellipse cx="60" cy="76" rx="3.5" ry="2.5" fill="#A888D0"/>
  <!-- 口 -->
  <path d="M 55 80 Q 60 85 65 80" stroke="#A888D0" stroke-width="1.8" fill="none" stroke-linecap="round"/>
</svg>
