<svg xmlns="http://www.w3.org/2000/svg" viewBox="0 0 120 120">
  <!-- 頭ベース -->
  <circle cx="60" cy="66" r="46" fill="#8B7355"/>
  <!-- 耳 -->
  <circle cx="34" cy="30" r="14" fill="#7A6040"/>
  <circle cx="86" cy="30" r="14" fill="#7A6040"/>
  <circle cx="34" cy="30" r="8" fill="#C0A878"/>
  <circle cx="86" cy="30" r="8" fill="#C0A878"/>
  <!-- 顔 -->
  <circle cx="60" cy="68" r="36" fill="#D4B888"/>
  <!-- たぬきの目の周りの黒リング -->
  <ellipse cx="50" cy="64" rx="12" ry="10" fill="#5A4030"/>
  <ellipse cx="70" cy="64" rx="12" ry="10" fill="#5A4030"/>
  <!-- 鼻周りの白 -->
  <ellipse cx="60" cy="78" rx="16" ry="11" fill="#EEE0C8"/>
  <!-- 目 -->
  <ellipse cx="50" cy="64" rx="5.5" ry="5.5" fill="#2D1B00"/>
  <ellipse cx="70" cy="64" rx="5.5" ry="5.5" fill="#2D1B00"/>
  <circle cx="51.8" cy="62.2" r="1.8" fill="white"/>
  <circle cx="71.8" cy="62.2" r="1.8" fill="white"/>
  <!-- ほっぺ -->
  <circle cx="42" cy="76" r="7" fill="#FFB3C0" opacity="0.45"/>
  <circle cx="78" cy="76" r="7" fill="#FFB3C0" opacity="0.45"/>
  <!-- 鼻 -->
  <ellipse cx="60" cy="77" rx="5" ry="3.5" fill="#7A6040"/>
  <!-- 口 -->
  <path d="M 54 82 Q 60 87 66 82" stroke="#7A6040" stroke-width="1.8" fill="none" stroke-linecap="round"/>
  <!-- ひげ -->
  <line x1="26" y1="77" x2="50" y2="78" stroke="#C0A878" stroke-width="1" opacity="0.7"/>
  <line x1="26" y1="81" x2="50" y2="81" stroke="#C0A878" stroke-width="1" opacity="0.7"/>
  <line x1="70" y1="78" x2="94" y2="77" stroke="#C0A878" stroke-width="1" opacity="0.7"/>
  <line x1="70" y1="81" x2="94" y2="81" stroke="#C0A878" stroke-width="1" opacity="0.7"/>
</svg>
