<svg xmlns="http://www.w3.org/2000/svg" viewBox="0 0 120 120">
  <!-- ふわふわ毛（周辺） -->
  <circle cx="28" cy="44" r="16" fill="#E8E0D0"/>
  <circle cx="92" cy="44" r="16" fill="#E8E0D0"/>
  <circle cx="18" cy="62" r="14" fill="#E8E0D0"/>
  <circle cx="102" cy="62" r="14" fill="#E8E0D0"/>
  <circle cx="36" cy="26" r="14" fill="#E8E0D0"/>
  <circle cx="84" cy="26" r="14" fill="#E8E0D0"/>
  <circle cx="60" cy="18" r="16" fill="#E8E0D0"/>
  <!-- 頭ベース -->
  <circle cx="60" cy="68" r="38" fill="#E8E0D0"/>
  <!-- 顔（少し白い） -->
  <circle cx="60" cy="70" r="30" fill="#F8F4EC"/>
  <!-- 耳（たれ耳） -->
  <ellipse cx="30" cy="64" rx="9" ry="14" fill="#D4C8B8" transform="rotate(-15 30 64)"/>
  <ellipse cx="90" cy="64" rx="9" ry="14" fill="#D4C8B8" transform="rotate(15 90 64)"/>
  <ellipse cx="30" cy="64" rx="5" ry="9" fill="#EEE4D4" transform="rotate(-15 30 64)"/>
  <ellipse cx="90" cy="64" rx="5" ry="9" fill="#EEE4D4" transform="rotate(15 90 64)"/>
  <!-- 眉 -->
  <path d="M 44 58 Q 49 55 54 58" stroke="#8A7860" stroke-width="1.8" fill="none" stroke-linecap="round"/>
  <path d="M 66 58 Q 71 55 76 58" stroke="#8A7860" stroke-width="1.8" fill="none" stroke-linecap="round"/>
  <!-- 目 -->
  <ellipse cx="50" cy="65" rx="5.5" ry="5.5" fill="#2D2010"/>
  <ellipse cx="70" cy="65" rx="5.5" ry="5.5" fill="#2D2010"/>
  <circle cx="51.8" cy="63.2" r="1.8" fill="white"/>
  <circle cx="71.8" cy="63.2" r="1.8" fill="white"/>
  <!-- ほっぺ -->
  <circle cx="43" cy="74" r="7.5" fill="#FFB3C0" opacity="0.55"/>
  <circle cx="77" cy="74" r="7.5" fill="#FFB3C0" opacity="0.55"/>
  <!-- 鼻 -->
  <ellipse cx="60" cy="76" rx="4" ry="3" fill="#B09880"/>
  <!-- 口 -->
  <path d="M 55 80 Q 60 85 65 80" stroke="#B09880" stroke-width="1.8" fill="none" stroke-linecap="round"/>
</svg>
