<svg xmlns="http://www.w3.org/2000/svg" viewBox="0 0 120 120">
  <!-- 頭ベース -->
  <circle cx="60" cy="66" r="46" fill="#D4821A"/>
  <!-- 耳 -->
  <circle cx="34" cy="30" r="13" fill="#C07010"/>
  <circle cx="86" cy="30" r="13" fill="#C07010"/>
  <circle cx="34" cy="30" r="7" fill="#F0D080"/>
  <circle cx="86" cy="30" r="7" fill="#F0D080"/>
  <!-- 耳の縞 -->
  <path d="M 30 20 Q 34 16 38 20" stroke="#8B4A00" stroke-width="2" fill="none"/>
  <path d="M 82 20 Q 86 16 90 20" stroke="#8B4A00" stroke-width="2" fill="none"/>
  <!-- 顔 -->
  <circle cx="60" cy="68" r="36" fill="#F5D080"/>
  <!-- 額の縞模様 -->
  <path d="M 60 35 Q 58 42 60 48" stroke="#8B4A00" stroke-width="3" fill="none" stroke-linecap="round"/>
  <path d="M 52 38 Q 50 44 52 50" stroke="#8B4A00" stroke-width="2" fill="none" stroke-linecap="round"/>
  <path d="M 68 38 Q 70 44 68 50" stroke="#8B4A00" stroke-width="2" fill="none" stroke-linecap="round"/>
  <!-- 頬の縞 -->
  <path d="M 32 70 Q 40 68 46 72" stroke="#8B4A00" stroke-width="2" fill="none" stroke-linecap="round"/>
  <path d="M 34 77 Q 42 75 47 78" stroke="#8B4A00" stroke-width="2" fill="none" stroke-linecap="round"/>
  <path d="M 74 72 Q 80 68 88 70" stroke="#8B4A00" stroke-width="2" fill="none" stroke-linecap="round"/>
  <path d="M 73 78 Q 78 75 86 77" stroke="#8B4A00" stroke-width="2" fill="none" stroke-linecap="round"/>
  <!-- 口周りの白 -->
  <ellipse cx="60" cy="79" rx="15" ry="10" fill="#FFF0C0"/>
  <!-- 眉 -->
  <path d="M 44 56 Q 49 52 54 56" stroke="#8B4A00" stroke-width="2.2" fill="none" stroke-linecap="round"/>
  <path d="M 66 56 Q 71 52 76 56" stroke="#8B4A00" stroke-width="2.2" fill="none" stroke-linecap="round"/>
  <!-- 目 -->
  <ellipse cx="50" cy="63" rx="5.5" ry="5.5" fill="#2D1B00"/>
  <ellipse cx="70" cy="63" rx="5.5" ry="5.5" fill="#2D1B00"/>
  <circle cx="51.8" cy="61.2" r="1.8" fill="white"/>
  <circle cx="71.8" cy="61.2" r="1.8" fill="white"/>
  <!-- ほっぺ -->
  <circle cx="43" cy="74" r="7" fill="#FFB3C0" opacity="0.45"/>
  <circle cx="77" cy="74" r="7" fill="#FFB3C0" opacity="0.45"/>
  <!-- 鼻 -->
  <ellipse cx="60" cy="76" rx="4" ry="3" fill="#A05000"/>
  <!-- 口 -->
  <path d="M 55 80 Q 60 85 65 80" stroke="#A05000" stroke-width="1.8" fill="none" stroke-linecap="round"/>
</svg>
